<svg width="11" height="20" viewBox="0 0 11 20" fill="none" xmlns="http://www.w3.org/2000/svg">
<path d="M10.62 0.990037C10.5039 0.873629 10.366 0.781272 10.2141 0.718256C10.0622 0.65524 9.89942 0.622803 9.735 0.622803C9.57058 0.622803 9.40778 0.65524 9.25592 0.718256C9.10406 0.781272 8.96612 0.873629 8.85 0.990037L0.540003 9.30004C0.447299 9.39255 0.373752 9.50244 0.32357 9.62341C0.273389 9.74439 0.247559 9.87407 0.247559 10.005C0.247559 10.136 0.273389 10.2657 0.32357 10.3867C0.373752 10.5076 0.447299 10.6175 0.540003 10.71L8.85 19.02C9.34 19.51 10.13 19.51 10.62 19.02C11.11 18.53 11.11 17.74 10.62 17.25L3.38 10L10.63 2.75004C11.11 2.27004 11.11 1.47004 10.62 0.990037Z" fill="#FCFCFC"/>
</svg>
