<svg width="180" height="42" viewBox="0 0 180 42" fill="none" xmlns="http://www.w3.org/2000/svg">
<g filter="url(#filter0_d_1058_3495)">
<rect x="4" width="172" height="34" rx="6" fill="white"/>
</g>
<path d="M31 14L25.5 21L23 17.8182" stroke="#19364D" stroke-opacity="0.6" stroke-linecap="round" stroke-linejoin="round"/>
<circle cx="27" cy="17" r="8.5" stroke="#19364D" stroke-opacity="0.6"/>
<path d="M45.2756 12.7727V21.5H43.9588V12.7727H45.2756ZM48.3651 17.6136V21.5H47.0909V14.9545H48.3139V16.0199H48.3949C48.5455 15.6733 48.7813 15.3949 49.1023 15.1847C49.4261 14.9744 49.8338 14.8693 50.3253 14.8693C50.7713 14.8693 51.1619 14.9631 51.4972 15.1506C51.8324 15.3352 52.0923 15.6108 52.277 15.9773C52.4616 16.3437 52.554 16.7969 52.554 17.3366V21.5H51.2798V17.4901C51.2798 17.0156 51.1563 16.6449 50.9091 16.3778C50.6619 16.108 50.3224 15.973 49.8906 15.973C49.5952 15.973 49.3324 16.0369 49.1023 16.1648C48.875 16.2926 48.6946 16.4801 48.5611 16.7273C48.4304 16.9716 48.3651 17.267 48.3651 17.6136ZM57.3182 14.9545V15.9773H53.7429V14.9545H57.3182ZM54.7017 13.3864H55.9759V19.5781C55.9759 19.8253 56.0128 20.0114 56.0866 20.1364C56.1605 20.2585 56.2557 20.3423 56.3722 20.3878C56.4915 20.4304 56.6207 20.4517 56.7599 20.4517C56.8622 20.4517 56.9517 20.4446 57.0284 20.4304C57.1051 20.4162 57.1648 20.4048 57.2074 20.3963L57.4375 21.4489C57.3636 21.4773 57.2585 21.5057 57.1222 21.5341C56.9858 21.5653 56.8153 21.5824 56.6108 21.5852C56.2756 21.5909 55.9631 21.5312 55.6733 21.4062C55.3835 21.2812 55.1491 21.0881 54.9702 20.8267C54.7912 20.5653 54.7017 20.2372 54.7017 19.8423V13.3864ZM61.4783 21.6321C60.8335 21.6321 60.2781 21.4943 59.8121 21.2188C59.3491 20.9403 58.9911 20.5497 58.7383 20.0469C58.4883 19.5412 58.3633 18.9489 58.3633 18.2699C58.3633 17.5994 58.4883 17.0085 58.7383 16.4972C58.9911 15.9858 59.3434 15.5866 59.7951 15.2997C60.2496 15.0128 60.7809 14.8693 61.3888 14.8693C61.7582 14.8693 62.1161 14.9304 62.4627 15.0526C62.8093 15.1747 63.1204 15.3665 63.396 15.6278C63.6715 15.8892 63.8888 16.2287 64.0479 16.6463C64.207 17.0611 64.2866 17.5653 64.2866 18.1591V18.6108H59.0835V17.6562H63.038C63.038 17.321 62.9698 17.0241 62.8335 16.7656C62.6971 16.5043 62.5053 16.2983 62.2582 16.1477C62.0138 15.9972 61.7269 15.9219 61.3974 15.9219C61.0394 15.9219 60.7269 16.0099 60.4599 16.1861C60.1957 16.3594 59.9911 16.5866 59.8462 16.8679C59.7042 17.1463 59.6332 17.4489 59.6332 17.7756V18.5213C59.6332 18.9588 59.7099 19.331 59.8633 19.6378C60.0195 19.9446 60.2369 20.179 60.5153 20.3409C60.7937 20.5 61.119 20.5795 61.4911 20.5795C61.7326 20.5795 61.9528 20.5455 62.1516 20.4773C62.3505 20.4062 62.5224 20.3011 62.6673 20.1619C62.8121 20.0227 62.9229 19.8509 62.9996 19.6463L64.2056 19.8636C64.109 20.2187 63.9357 20.5298 63.6857 20.7969C63.4386 21.0611 63.1275 21.267 62.7525 21.4148C62.3803 21.5597 61.9556 21.6321 61.4783 21.6321ZM65.7003 21.5V14.9545H66.9318V15.9943H67C67.1193 15.642 67.3295 15.3651 67.6307 15.1634C67.9347 14.9588 68.2784 14.8565 68.6619 14.8565C68.7415 14.8565 68.8352 14.8594 68.9432 14.8651C69.054 14.8707 69.1406 14.8778 69.2031 14.8864V16.1051C69.152 16.0909 69.0611 16.0753 68.9304 16.0582C68.7997 16.0384 68.669 16.0284 68.5384 16.0284C68.2372 16.0284 67.9688 16.0923 67.733 16.2202C67.5 16.3452 67.3153 16.5199 67.179 16.7443C67.0426 16.9659 66.9744 17.2187 66.9744 17.5028V21.5H65.7003ZM71.5799 17.6136V21.5H70.3058V14.9545H71.5288V16.0199H71.6097C71.7603 15.6733 71.9961 15.3949 72.3171 15.1847C72.641 14.9744 73.0487 14.8693 73.5401 14.8693C73.9862 14.8693 74.3768 14.9631 74.712 15.1506C75.0472 15.3352 75.3072 15.6108 75.4918 15.9773C75.6765 16.3437 75.7688 16.7969 75.7688 17.3366V21.5H74.4947V17.4901C74.4947 17.0156 74.3711 16.6449 74.1239 16.3778C73.8768 16.108 73.5373 15.973 73.1055 15.973C72.81 15.973 72.5472 16.0369 72.3171 16.1648C72.0898 16.2926 71.9094 16.4801 71.7759 16.7273C71.6452 16.9716 71.5799 17.267 71.5799 17.6136ZM82.3825 16.5526L81.2276 16.7571C81.1793 16.6094 81.1026 16.4687 80.9975 16.3352C80.8952 16.2017 80.756 16.0923 80.5799 16.0071C80.4038 15.9219 80.1836 15.8793 79.9194 15.8793C79.5586 15.8793 79.2575 15.9602 79.016 16.1222C78.7745 16.2812 78.6538 16.4872 78.6538 16.7401C78.6538 16.9588 78.7347 17.1349 78.8967 17.2685C79.0586 17.402 79.32 17.5114 79.6808 17.5966L80.7205 17.8352C81.3228 17.9744 81.7717 18.1889 82.0671 18.4787C82.3626 18.7685 82.5103 19.1449 82.5103 19.608C82.5103 20 82.3967 20.3494 82.1694 20.6562C81.945 20.9602 81.631 21.1989 81.2276 21.3722C80.8271 21.5455 80.3626 21.6321 79.8342 21.6321C79.1012 21.6321 78.5032 21.4759 78.0401 21.1634C77.5771 20.848 77.293 20.4006 77.1879 19.821L78.4194 19.6335C78.4961 19.9545 78.6538 20.1974 78.8924 20.3622C79.131 20.5241 79.4421 20.6051 79.8256 20.6051C80.2433 20.6051 80.5771 20.5185 80.8271 20.3452C81.0771 20.169 81.2021 19.9545 81.2021 19.7017C81.2021 19.4972 81.1254 19.3253 80.9719 19.1861C80.8214 19.0469 80.5898 18.9418 80.2773 18.8707L79.1694 18.6278C78.5586 18.4886 78.1069 18.267 77.8143 17.9631C77.5245 17.6591 77.3796 17.2741 77.3796 16.8082C77.3796 16.4219 77.4876 16.0838 77.7035 15.794C77.9194 15.5043 78.2177 15.2784 78.5984 15.1165C78.979 14.9517 79.4151 14.8693 79.9066 14.8693C80.614 14.8693 81.1708 15.0227 81.5771 15.3295C81.9833 15.6335 82.2518 16.0412 82.3825 16.5526ZM85.1854 17.6136V21.5H83.9112V12.7727H85.1683V16.0199H85.2493C85.4027 15.6676 85.6371 15.3878 85.9524 15.1804C86.2678 14.973 86.6797 14.8693 87.1882 14.8693C87.6371 14.8693 88.0291 14.9616 88.3643 15.1463C88.7024 15.331 88.9638 15.6065 89.1484 15.973C89.3359 16.3366 89.4297 16.7912 89.4297 17.3366V21.5H88.1555V17.4901C88.1555 17.0099 88.032 16.6378 87.7848 16.3736C87.5376 16.1065 87.1939 15.973 86.7536 15.973C86.4524 15.973 86.1825 16.0369 85.9439 16.1648C85.7081 16.2926 85.522 16.4801 85.3857 16.7273C85.2521 16.9716 85.1854 17.267 85.1854 17.6136ZM91.13 21.5V14.9545H92.4041V21.5H91.13ZM91.7734 13.9446C91.5518 13.9446 91.3615 13.8707 91.2024 13.723C91.0462 13.5724 90.968 13.3935 90.968 13.1861C90.968 12.9759 91.0462 12.7969 91.2024 12.6491C91.3615 12.4986 91.5518 12.4233 91.7734 12.4233C91.995 12.4233 92.1839 12.4986 92.3402 12.6491C92.4993 12.7969 92.5788 12.9759 92.5788 13.1861C92.5788 13.3935 92.4993 13.5724 92.3402 13.723C92.1839 13.8707 91.995 13.9446 91.7734 13.9446ZM94.1183 23.9545V14.9545H95.3626V16.0156H95.4691C95.543 15.8793 95.6495 15.7216 95.7887 15.5426C95.9279 15.3636 96.1211 15.2074 96.3683 15.0739C96.6154 14.9375 96.9421 14.8693 97.3484 14.8693C97.8768 14.8693 98.3484 15.0028 98.7631 15.2699C99.1779 15.5369 99.5032 15.9219 99.739 16.4247C99.9776 16.9276 100.097 17.5327 100.097 18.2401C100.097 18.9474 99.979 19.554 99.7433 20.0597C99.5075 20.5625 99.1836 20.9503 98.7717 21.223C98.3597 21.4929 97.8896 21.6278 97.3612 21.6278C96.9634 21.6278 96.6381 21.5611 96.3853 21.4276C96.1353 21.294 95.9393 21.1378 95.7972 20.9588C95.6552 20.7798 95.5458 20.6207 95.4691 20.4815H95.3924V23.9545H94.1183ZM95.3668 18.2273C95.3668 18.6875 95.4336 19.0909 95.5671 19.4375C95.7006 19.7841 95.8938 20.0554 96.1467 20.2514C96.3995 20.4446 96.7092 20.5412 97.0756 20.5412C97.4563 20.5412 97.7745 20.4403 98.0302 20.2386C98.2859 20.0341 98.479 19.7571 98.6097 19.4077C98.7433 19.0582 98.81 18.6648 98.81 18.2273C98.81 17.7955 98.7447 17.4077 98.614 17.0639C98.4862 16.7202 98.293 16.4489 98.0344 16.25C97.7788 16.0511 97.4592 15.9517 97.0756 15.9517C96.7063 15.9517 96.3938 16.0469 96.1381 16.2372C95.8853 16.4276 95.6935 16.6932 95.5629 17.0341C95.4322 17.375 95.3668 17.7727 95.3668 18.2273ZM104.7 23.9545V14.9545H105.945V16.0156H106.051C106.125 15.8793 106.232 15.7216 106.371 15.5426C106.51 15.3636 106.703 15.2074 106.95 15.0739C107.197 14.9375 107.524 14.8693 107.93 14.8693C108.459 14.8693 108.93 15.0028 109.345 15.2699C109.76 15.5369 110.085 15.9219 110.321 16.4247C110.56 16.9276 110.679 17.5327 110.679 18.2401C110.679 18.9474 110.561 19.554 110.325 20.0597C110.089 20.5625 109.766 20.9503 109.354 21.223C108.942 21.4929 108.472 21.6278 107.943 21.6278C107.545 21.6278 107.22 21.5611 106.967 21.4276C106.717 21.294 106.521 21.1378 106.379 20.9588C106.237 20.7798 106.128 20.6207 106.051 20.4815H105.974V23.9545H104.7ZM105.949 18.2273C105.949 18.6875 106.016 19.0909 106.149 19.4375C106.283 19.7841 106.476 20.0554 106.729 20.2514C106.982 20.4446 107.291 20.5412 107.658 20.5412C108.038 20.5412 108.357 20.4403 108.612 20.2386C108.868 20.0341 109.061 19.7571 109.192 19.4077C109.325 19.0582 109.392 18.6648 109.392 18.2273C109.392 17.7955 109.327 17.4077 109.196 17.0639C109.068 16.7202 108.875 16.4489 108.616 16.25C108.361 16.0511 108.041 15.9517 107.658 15.9517C107.288 15.9517 106.976 16.0469 106.72 16.2372C106.467 16.4276 106.276 16.6932 106.145 17.0341C106.014 17.375 105.949 17.7727 105.949 18.2273ZM113.381 12.7727V21.5H112.107V12.7727H113.381ZM117 21.6449C116.585 21.6449 116.21 21.5682 115.875 21.4148C115.539 21.2585 115.274 21.0327 115.078 20.7372C114.885 20.4418 114.788 20.0795 114.788 19.6506C114.788 19.2812 114.859 18.9773 115.001 18.7386C115.143 18.5 115.335 18.3111 115.576 18.1719C115.818 18.0327 116.088 17.9276 116.386 17.8565C116.684 17.7855 116.988 17.7315 117.298 17.6946C117.69 17.6491 118.008 17.6122 118.252 17.5838C118.497 17.5526 118.674 17.5028 118.785 17.4347C118.896 17.3665 118.951 17.2557 118.951 17.1023V17.0724C118.951 16.7003 118.846 16.4119 118.636 16.2074C118.429 16.0028 118.119 15.9006 117.707 15.9006C117.278 15.9006 116.94 15.9957 116.693 16.1861C116.449 16.3736 116.279 16.5824 116.186 16.8125L114.988 16.5398C115.13 16.142 115.338 15.821 115.61 15.5767C115.886 15.3295 116.203 15.1506 116.561 15.0398C116.919 14.9261 117.295 14.8693 117.69 14.8693C117.951 14.8693 118.228 14.9006 118.521 14.9631C118.816 15.0227 119.092 15.1335 119.348 15.2955C119.606 15.4574 119.818 15.6889 119.983 15.9901C120.147 16.2884 120.23 16.6761 120.23 17.1534V21.5H118.985V20.6051H118.934C118.852 20.7699 118.728 20.9318 118.564 21.0909C118.399 21.25 118.187 21.3821 117.929 21.4872C117.67 21.5923 117.36 21.6449 117 21.6449ZM117.277 20.6222C117.629 20.6222 117.93 20.5526 118.18 20.4134C118.433 20.2741 118.625 20.0923 118.755 19.8679C118.889 19.6406 118.956 19.3977 118.956 19.1392V18.2955C118.91 18.3409 118.822 18.3835 118.691 18.4233C118.564 18.4602 118.417 18.4929 118.252 18.5213C118.088 18.5469 117.927 18.571 117.771 18.5938C117.615 18.6136 117.484 18.6307 117.379 18.6449C117.132 18.6761 116.906 18.7287 116.701 18.8026C116.5 18.8764 116.338 18.983 116.216 19.1222C116.096 19.2585 116.037 19.4403 116.037 19.6676C116.037 19.983 116.153 20.2216 116.386 20.3835C116.619 20.5426 116.916 20.6222 117.277 20.6222ZM124.684 21.6321C124.05 21.6321 123.505 21.4886 123.048 21.2017C122.593 20.9119 122.244 20.5128 121.999 20.0043C121.755 19.4957 121.633 18.9134 121.633 18.2571C121.633 17.5923 121.758 17.0057 122.008 16.4972C122.258 15.9858 122.61 15.5866 123.065 15.2997C123.519 15.0128 124.055 14.8693 124.671 14.8693C125.168 14.8693 125.612 14.9616 126.001 15.1463C126.39 15.3281 126.704 15.5838 126.942 15.9134C127.184 16.2429 127.327 16.6278 127.373 17.0682H126.133C126.065 16.7614 125.908 16.4972 125.664 16.2756C125.423 16.054 125.099 15.9432 124.692 15.9432C124.337 15.9432 124.026 16.0369 123.759 16.2244C123.495 16.4091 123.289 16.6733 123.141 17.017C122.994 17.358 122.92 17.7614 122.92 18.2273C122.92 18.7045 122.992 19.1165 123.137 19.4631C123.282 19.8097 123.487 20.0781 123.751 20.2685C124.018 20.4588 124.332 20.554 124.692 20.554C124.934 20.554 125.153 20.5099 125.349 20.4219C125.548 20.331 125.714 20.2017 125.847 20.0341C125.984 19.8665 126.079 19.6648 126.133 19.429H127.373C127.327 19.8523 127.19 20.2301 126.96 20.5625C126.729 20.8949 126.421 21.1562 126.035 21.3466C125.651 21.5369 125.201 21.6321 124.684 21.6321ZM131.556 21.6321C130.912 21.6321 130.356 21.4943 129.89 21.2188C129.427 20.9403 129.069 20.5497 128.816 20.0469C128.566 19.5412 128.441 18.9489 128.441 18.2699C128.441 17.5994 128.566 17.0085 128.816 16.4972C129.069 15.9858 129.422 15.5866 129.873 15.2997C130.328 15.0128 130.859 14.8693 131.467 14.8693C131.836 14.8693 132.194 14.9304 132.541 15.0526C132.887 15.1747 133.199 15.3665 133.474 15.6278C133.75 15.8892 133.967 16.2287 134.126 16.6463C134.285 17.0611 134.365 17.5653 134.365 18.1591V18.6108H129.162V17.6562H133.116C133.116 17.321 133.048 17.0241 132.912 16.7656C132.775 16.5043 132.583 16.2983 132.336 16.1477C132.092 15.9972 131.805 15.9219 131.475 15.9219C131.118 15.9219 130.805 16.0099 130.538 16.1861C130.274 16.3594 130.069 16.5866 129.924 16.8679C129.782 17.1463 129.711 17.4489 129.711 17.7756V18.5213C129.711 18.9588 129.788 19.331 129.941 19.6378C130.098 19.9446 130.315 20.179 130.593 20.3409C130.872 20.5 131.197 20.5795 131.569 20.5795C131.811 20.5795 132.031 20.5455 132.23 20.4773C132.429 20.4062 132.6 20.3011 132.745 20.1619C132.89 20.0227 133.001 19.8509 133.078 19.6463L134.284 19.8636C134.187 20.2187 134.014 20.5298 133.764 20.7969C133.517 21.0611 133.206 21.267 132.831 21.4148C132.458 21.5597 132.034 21.6321 131.556 21.6321ZM135.778 21.5V14.9545H137.001V16.0199H137.082C137.219 15.6591 137.442 15.3778 137.751 15.1761C138.061 14.9716 138.432 14.8693 138.864 14.8693C139.301 14.8693 139.668 14.9716 139.963 15.1761C140.261 15.3807 140.482 15.6619 140.624 16.0199H140.692C140.848 15.6705 141.097 15.392 141.438 15.1847C141.778 14.9744 142.185 14.8693 142.656 14.8693C143.25 14.8693 143.734 15.0554 144.109 15.4276C144.487 15.7997 144.676 16.3608 144.676 17.1108V21.5H143.402V17.2301C143.402 16.7869 143.281 16.4659 143.04 16.267C142.798 16.0682 142.51 15.9688 142.175 15.9688C141.76 15.9688 141.438 16.0966 141.207 16.3523C140.977 16.6051 140.862 16.9304 140.862 17.3281V21.5H139.592V17.1491C139.592 16.794 139.482 16.5085 139.26 16.2926C139.038 16.0767 138.75 15.9688 138.395 15.9688C138.153 15.9688 137.93 16.0327 137.726 16.1605C137.524 16.2855 137.361 16.4602 137.236 16.6847C137.114 16.9091 137.053 17.169 137.053 17.4645V21.5H135.778ZM149.205 21.6321C148.56 21.6321 148.005 21.4943 147.539 21.2188C147.076 20.9403 146.718 20.5497 146.465 20.0469C146.215 19.5412 146.09 18.9489 146.09 18.2699C146.09 17.5994 146.215 17.0085 146.465 16.4972C146.718 15.9858 147.07 15.5866 147.522 15.2997C147.976 15.0128 148.507 14.8693 149.115 14.8693C149.485 14.8693 149.843 14.9304 150.189 15.0526C150.536 15.1747 150.847 15.3665 151.123 15.6278C151.398 15.8892 151.615 16.2287 151.775 16.6463C151.934 17.0611 152.013 17.5653 152.013 18.1591V18.6108H146.81V17.6562H150.765C150.765 17.321 150.696 17.0241 150.56 16.7656C150.424 16.5043 150.232 16.2983 149.985 16.1477C149.74 15.9972 149.453 15.9219 149.124 15.9219C148.766 15.9219 148.453 16.0099 148.186 16.1861C147.922 16.3594 147.718 16.5866 147.573 16.8679C147.431 17.1463 147.36 17.4489 147.36 17.7756V18.5213C147.36 18.9588 147.436 19.331 147.59 19.6378C147.746 19.9446 147.963 20.179 148.242 20.3409C148.52 20.5 148.846 20.5795 149.218 20.5795C149.459 20.5795 149.679 20.5455 149.878 20.4773C150.077 20.4062 150.249 20.3011 150.394 20.1619C150.539 20.0227 150.65 19.8509 150.726 19.6463L151.932 19.8636C151.836 20.2187 151.662 20.5298 151.412 20.7969C151.165 21.0611 150.854 21.267 150.479 21.4148C150.107 21.5597 149.682 21.6321 149.205 21.6321ZM154.701 17.6136V21.5H153.427V14.9545H154.65V16.0199H154.731C154.881 15.6733 155.117 15.3949 155.438 15.1847C155.762 14.9744 156.17 14.8693 156.661 14.8693C157.107 14.8693 157.498 14.9631 157.833 15.1506C158.168 15.3352 158.428 15.6108 158.613 15.9773C158.798 16.3437 158.89 16.7969 158.89 17.3366V21.5H157.616V17.4901C157.616 17.0156 157.492 16.6449 157.245 16.3778C156.998 16.108 156.658 15.973 156.227 15.973C155.931 15.973 155.668 16.0369 155.438 16.1648C155.211 16.2926 155.031 16.4801 154.897 16.7273C154.766 16.9716 154.701 17.267 154.701 17.6136ZM163.654 14.9545V15.9773H160.079V14.9545H163.654ZM161.038 13.3864H162.312V19.5781C162.312 19.8253 162.349 20.0114 162.423 20.1364C162.496 20.2585 162.592 20.3423 162.708 20.3878C162.827 20.4304 162.957 20.4517 163.096 20.4517C163.198 20.4517 163.288 20.4446 163.364 20.4304C163.441 20.4162 163.501 20.4048 163.543 20.3963L163.773 21.4489C163.7 21.4773 163.594 21.5057 163.458 21.5341C163.322 21.5653 163.151 21.5824 162.947 21.5852C162.612 21.5909 162.299 21.5312 162.009 21.4062C161.719 21.2812 161.485 21.0881 161.306 20.8267C161.127 20.5653 161.038 20.2372 161.038 19.8423V13.3864Z" fill="#212529"/>
<defs>
<filter id="filter0_d_1058_3495" x="0" y="0" width="180" height="42" filterUnits="userSpaceOnUse" color-interpolation-filters="sRGB">
<feFlood flood-opacity="0" result="BackgroundImageFix"/>
<feColorMatrix in="SourceAlpha" type="matrix" values="0 0 0 0 0 0 0 0 0 0 0 0 0 0 0 0 0 0 127 0" result="hardAlpha"/>
<feOffset dy="4"/>
<feGaussianBlur stdDeviation="2"/>
<feComposite in2="hardAlpha" operator="out"/>
<feColorMatrix type="matrix" values="0 0 0 0 0.8625 0 0 0 0 0.8625 0 0 0 0 0.8625 0 0 0 0.25 0"/>
<feBlend mode="normal" in2="BackgroundImageFix" result="effect1_dropShadow_1058_3495"/>
<feBlend mode="normal" in="SourceGraphic" in2="effect1_dropShadow_1058_3495" result="shape"/>
</filter>
</defs>
</svg>
