<svg width="194" height="42" viewBox="0 0 194 42" fill="none" xmlns="http://www.w3.org/2000/svg">
<g filter="url(#filter0_d_1058_3502)">
<rect x="4" width="186" height="34" rx="6" fill="white"/>
</g>
<path d="M31 14L25.5 21L23 17.8182" stroke="#19364D" stroke-opacity="0.6" stroke-linecap="round" stroke-linejoin="round"/>
<circle cx="27" cy="17" r="8.5" stroke="#19364D" stroke-opacity="0.6"/>
<path d="M43.9588 12.7727H45.5568L48.3352 19.5568H48.4375L51.2159 12.7727H52.8139V21.5H51.5611V15.1847H51.4801L48.9062 21.4872H47.8665L45.2926 15.1804H45.2116V21.5H43.9588V12.7727ZM57.4471 21.6321C56.8022 21.6321 56.2468 21.4943 55.7809 21.2188C55.3178 20.9403 54.9599 20.5497 54.707 20.0469C54.457 19.5412 54.332 18.9489 54.332 18.2699C54.332 17.5994 54.457 17.0085 54.707 16.4972C54.9599 15.9858 55.3121 15.5866 55.7638 15.2997C56.2184 15.0128 56.7496 14.8693 57.3576 14.8693C57.7269 14.8693 58.0849 14.9304 58.4315 15.0526C58.7781 15.1747 59.0891 15.3665 59.3647 15.6278C59.6403 15.8892 59.8576 16.2287 60.0167 16.6463C60.1758 17.0611 60.2553 17.5653 60.2553 18.1591V18.6108H55.0522V17.6562H59.0067C59.0067 17.321 58.9386 17.0241 58.8022 16.7656C58.6658 16.5043 58.4741 16.2983 58.2269 16.1477C57.9826 15.9972 57.6957 15.9219 57.3661 15.9219C57.0082 15.9219 56.6957 16.0099 56.4286 16.1861C56.1644 16.3594 55.9599 16.5866 55.815 16.8679C55.6729 17.1463 55.6019 17.4489 55.6019 17.7756V18.5213C55.6019 18.9588 55.6786 19.331 55.832 19.6378C55.9883 19.9446 56.2056 20.179 56.484 20.3409C56.7624 20.5 57.0877 20.5795 57.4599 20.5795C57.7013 20.5795 57.9215 20.5455 58.1204 20.4773C58.3192 20.4062 58.4911 20.3011 58.636 20.1619C58.7809 20.0227 58.8917 19.8509 58.9684 19.6463L60.1744 19.8636C60.0778 20.2187 59.9045 20.5298 59.6545 20.7969C59.4073 21.0611 59.0962 21.267 58.7212 21.4148C58.3491 21.5597 57.9244 21.6321 57.4471 21.6321ZM62.9432 17.6136V21.5H61.669V14.9545H62.892V16.0199H62.973C63.1236 15.6733 63.3594 15.3949 63.6804 15.1847C64.0043 14.9744 64.4119 14.8693 64.9034 14.8693C65.3494 14.8693 65.7401 14.9631 66.0753 15.1506C66.4105 15.3352 66.6705 15.6108 66.8551 15.9773C67.0398 16.3437 67.1321 16.7969 67.1321 17.3366V21.5H65.858V17.4901C65.858 17.0156 65.7344 16.6449 65.4872 16.3778C65.2401 16.108 64.9006 15.973 64.4688 15.973C64.1733 15.973 63.9105 16.0369 63.6804 16.1648C63.4531 16.2926 63.2727 16.4801 63.1392 16.7273C63.0085 16.9716 62.9432 17.267 62.9432 17.6136ZM71.8963 14.9545V15.9773H68.321V14.9545H71.8963ZM69.2798 13.3864H70.554V19.5781C70.554 19.8253 70.5909 20.0114 70.6648 20.1364C70.7386 20.2585 70.8338 20.3423 70.9503 20.3878C71.0696 20.4304 71.1989 20.4517 71.3381 20.4517C71.4403 20.4517 71.5298 20.4446 71.6065 20.4304C71.6832 20.4162 71.7429 20.4048 71.7855 20.3963L72.0156 21.4489C71.9418 21.4773 71.8366 21.5057 71.7003 21.5341C71.5639 21.5653 71.3935 21.5824 71.1889 21.5852C70.8537 21.5909 70.5412 21.5312 70.2514 21.4062C69.9616 21.2812 69.7273 21.0881 69.5483 20.8267C69.3693 20.5653 69.2798 20.2372 69.2798 19.8423V13.3864ZM75.9925 21.6321C75.3789 21.6321 74.8434 21.4915 74.386 21.2102C73.9286 20.929 73.5735 20.5355 73.3207 20.0298C73.0678 19.5241 72.9414 18.9332 72.9414 18.2571C72.9414 17.5781 73.0678 16.9844 73.3207 16.4759C73.5735 15.9673 73.9286 15.5724 74.386 15.2912C74.8434 15.0099 75.3789 14.8693 75.9925 14.8693C76.6062 14.8693 77.1417 15.0099 77.5991 15.2912C78.0565 15.5724 78.4116 15.9673 78.6644 16.4759C78.9173 16.9844 79.0437 17.5781 79.0437 18.2571C79.0437 18.9332 78.9173 19.5241 78.6644 20.0298C78.4116 20.5355 78.0565 20.929 77.5991 21.2102C77.1417 21.4915 76.6062 21.6321 75.9925 21.6321ZM75.9968 20.5625C76.3945 20.5625 76.7241 20.4574 76.9854 20.2472C77.2468 20.0369 77.44 19.7571 77.565 19.4077C77.6928 19.0582 77.7567 18.6733 77.7567 18.2528C77.7567 17.8352 77.6928 17.4517 77.565 17.1023C77.44 16.75 77.2468 16.4673 76.9854 16.2543C76.7241 16.0412 76.3945 15.9347 75.9968 15.9347C75.5962 15.9347 75.2638 16.0412 74.9996 16.2543C74.7383 16.4673 74.5437 16.75 74.4158 17.1023C74.2908 17.4517 74.2283 17.8352 74.2283 18.2528C74.2283 18.6733 74.2908 19.0582 74.4158 19.4077C74.5437 19.7571 74.7383 20.0369 74.9996 20.2472C75.2638 20.4574 75.5962 20.5625 75.9968 20.5625ZM80.4659 21.5V14.9545H81.6974V15.9943H81.7656C81.8849 15.642 82.0952 15.3651 82.3963 15.1634C82.7003 14.9588 83.044 14.8565 83.4276 14.8565C83.5071 14.8565 83.6009 14.8594 83.7088 14.8651C83.8196 14.8707 83.9062 14.8778 83.9688 14.8864V16.1051C83.9176 16.0909 83.8267 16.0753 83.696 16.0582C83.5653 16.0384 83.4347 16.0284 83.304 16.0284C83.0028 16.0284 82.7344 16.0923 82.4986 16.2202C82.2656 16.3452 82.081 16.5199 81.9446 16.7443C81.8082 16.9659 81.7401 17.2187 81.7401 17.5028V21.5H80.4659ZM89.9762 16.5526L88.8214 16.7571C88.7731 16.6094 88.6964 16.4687 88.5913 16.3352C88.489 16.2017 88.3498 16.0923 88.1737 16.0071C87.9975 15.9219 87.7773 15.8793 87.5131 15.8793C87.1523 15.8793 86.8512 15.9602 86.6097 16.1222C86.3683 16.2812 86.2475 16.4872 86.2475 16.7401C86.2475 16.9588 86.3285 17.1349 86.4904 17.2685C86.6523 17.402 86.9137 17.5114 87.2745 17.5966L88.3143 17.8352C88.9165 17.9744 89.3654 18.1889 89.6609 18.4787C89.9563 18.7685 90.104 19.1449 90.104 19.608C90.104 20 89.9904 20.3494 89.7631 20.6562C89.5387 20.9602 89.2248 21.1989 88.8214 21.3722C88.4208 21.5455 87.9563 21.6321 87.4279 21.6321C86.695 21.6321 86.0969 21.4759 85.6339 21.1634C85.1708 20.848 84.8867 20.4006 84.7816 19.821L86.0131 19.6335C86.0898 19.9545 86.2475 20.1974 86.4862 20.3622C86.7248 20.5241 87.0359 20.6051 87.4194 20.6051C87.837 20.6051 88.1708 20.5185 88.4208 20.3452C88.6708 20.169 88.7958 19.9545 88.7958 19.7017C88.7958 19.4972 88.7191 19.3253 88.5657 19.1861C88.4151 19.0469 88.1836 18.9418 87.8711 18.8707L86.7631 18.6278C86.1523 18.4886 85.7006 18.267 85.408 17.9631C85.1183 17.6591 84.9734 17.2741 84.9734 16.8082C84.9734 16.4219 85.0813 16.0838 85.2972 15.794C85.5131 15.5043 85.8114 15.2784 86.1921 15.1165C86.5728 14.9517 87.0089 14.8693 87.5004 14.8693C88.2077 14.8693 88.7646 15.0227 89.1708 15.3295C89.5771 15.6335 89.8455 16.0412 89.9762 16.5526ZM92.7791 17.6136V21.5H91.505V12.7727H92.7621V16.0199H92.843C92.9964 15.6676 93.2308 15.3878 93.5462 15.1804C93.8615 14.973 94.2734 14.8693 94.782 14.8693C95.2308 14.8693 95.6229 14.9616 95.9581 15.1463C96.2962 15.331 96.5575 15.6065 96.7422 15.973C96.9297 16.3366 97.0234 16.7912 97.0234 17.3366V21.5H95.7493V17.4901C95.7493 17.0099 95.6257 16.6378 95.3786 16.3736C95.1314 16.1065 94.7876 15.973 94.3473 15.973C94.0462 15.973 93.7763 16.0369 93.5376 16.1648C93.3018 16.2926 93.1158 16.4801 92.9794 16.7273C92.8459 16.9716 92.7791 17.267 92.7791 17.6136ZM98.7237 21.5V14.9545H99.9979V21.5H98.7237ZM99.3672 13.9446C99.1456 13.9446 98.9553 13.8707 98.7962 13.723C98.6399 13.5724 98.5618 13.3935 98.5618 13.1861C98.5618 12.9759 98.6399 12.7969 98.7962 12.6491C98.9553 12.4986 99.1456 12.4233 99.3672 12.4233C99.5888 12.4233 99.7777 12.4986 99.9339 12.6491C100.093 12.7969 100.173 12.9759 100.173 13.1861C100.173 13.3935 100.093 13.5724 99.9339 13.723C99.7777 13.8707 99.5888 13.9446 99.3672 13.9446ZM101.712 23.9545V14.9545H102.956V16.0156H103.063C103.137 15.8793 103.243 15.7216 103.382 15.5426C103.522 15.3636 103.715 15.2074 103.962 15.0739C104.209 14.9375 104.536 14.8693 104.942 14.8693C105.471 14.8693 105.942 15.0028 106.357 15.2699C106.772 15.5369 107.097 15.9219 107.333 16.4247C107.571 16.9276 107.691 17.5327 107.691 18.2401C107.691 18.9474 107.573 19.554 107.337 20.0597C107.101 20.5625 106.777 20.9503 106.365 21.223C105.953 21.4929 105.483 21.6278 104.955 21.6278C104.557 21.6278 104.232 21.5611 103.979 21.4276C103.729 21.294 103.533 21.1378 103.391 20.9588C103.249 20.7798 103.14 20.6207 103.063 20.4815H102.986V23.9545H101.712ZM102.961 18.2273C102.961 18.6875 103.027 19.0909 103.161 19.4375C103.294 19.7841 103.488 20.0554 103.74 20.2514C103.993 20.4446 104.303 20.5412 104.669 20.5412C105.05 20.5412 105.368 20.4403 105.624 20.2386C105.88 20.0341 106.073 19.7571 106.203 19.4077C106.337 19.0582 106.404 18.6648 106.404 18.2273C106.404 17.7955 106.338 17.4077 106.208 17.0639C106.08 16.7202 105.887 16.4489 105.628 16.25C105.373 16.0511 105.053 15.9517 104.669 15.9517C104.3 15.9517 103.988 16.0469 103.732 16.2372C103.479 16.4276 103.287 16.6932 103.157 17.0341C103.026 17.375 102.961 17.7727 102.961 18.2273ZM115.051 21.6321C114.438 21.6321 113.902 21.4915 113.445 21.2102C112.987 20.929 112.632 20.5355 112.379 20.0298C112.126 19.5241 112 18.9332 112 18.2571C112 17.5781 112.126 16.9844 112.379 16.4759C112.632 15.9673 112.987 15.5724 113.445 15.2912C113.902 15.0099 114.438 14.8693 115.051 14.8693C115.665 14.8693 116.2 15.0099 116.658 15.2912C117.115 15.5724 117.47 15.9673 117.723 16.4759C117.976 16.9844 118.102 17.5781 118.102 18.2571C118.102 18.9332 117.976 19.5241 117.723 20.0298C117.47 20.5355 117.115 20.929 116.658 21.2102C116.2 21.4915 115.665 21.6321 115.051 21.6321ZM115.055 20.5625C115.453 20.5625 115.783 20.4574 116.044 20.2472C116.305 20.0369 116.499 19.7571 116.624 19.4077C116.751 19.0582 116.815 18.6733 116.815 18.2528C116.815 17.8352 116.751 17.4517 116.624 17.1023C116.499 16.75 116.305 16.4673 116.044 16.2543C115.783 16.0412 115.453 15.9347 115.055 15.9347C114.655 15.9347 114.322 16.0412 114.058 16.2543C113.797 16.4673 113.602 16.75 113.474 17.1023C113.349 17.4517 113.287 17.8352 113.287 18.2528C113.287 18.6733 113.349 19.0582 113.474 19.4077C113.602 19.7571 113.797 20.0369 114.058 20.2472C114.322 20.4574 114.655 20.5625 115.055 20.5625ZM119.525 23.9545V14.9545H120.769V16.0156H120.875C120.949 15.8793 121.056 15.7216 121.195 15.5426C121.334 15.3636 121.527 15.2074 121.775 15.0739C122.022 14.9375 122.348 14.8693 122.755 14.8693C123.283 14.8693 123.755 15.0028 124.169 15.2699C124.584 15.5369 124.909 15.9219 125.145 16.4247C125.384 16.9276 125.503 17.5327 125.503 18.2401C125.503 18.9474 125.385 19.554 125.15 20.0597C124.914 20.5625 124.59 20.9503 124.178 21.223C123.766 21.4929 123.296 21.6278 122.767 21.6278C122.37 21.6278 122.044 21.5611 121.792 21.4276C121.542 21.294 121.346 21.1378 121.203 20.9588C121.061 20.7798 120.952 20.6207 120.875 20.4815H120.799V23.9545H119.525ZM120.773 18.2273C120.773 18.6875 120.84 19.0909 120.973 19.4375C121.107 19.7841 121.3 20.0554 121.553 20.2514C121.806 20.4446 122.115 20.5412 122.482 20.5412C122.863 20.5412 123.181 20.4403 123.436 20.2386C123.692 20.0341 123.885 19.7571 124.016 19.4077C124.15 19.0582 124.216 18.6648 124.216 18.2273C124.216 17.7955 124.151 17.4077 124.02 17.0639C123.892 16.7202 123.699 16.4489 123.441 16.25C123.185 16.0511 122.865 15.9517 122.482 15.9517C122.113 15.9517 121.8 16.0469 121.544 16.2372C121.292 16.4276 121.1 16.6932 120.969 17.0341C120.838 17.375 120.773 17.7727 120.773 18.2273ZM126.931 23.9545V14.9545H128.175V16.0156H128.282C128.355 15.8793 128.462 15.7216 128.601 15.5426C128.74 15.3636 128.934 15.2074 129.181 15.0739C129.428 14.9375 129.755 14.8693 130.161 14.8693C130.689 14.8693 131.161 15.0028 131.576 15.2699C131.99 15.5369 132.316 15.9219 132.551 16.4247C132.79 16.9276 132.909 17.5327 132.909 18.2401C132.909 18.9474 132.792 19.554 132.556 20.0597C132.32 20.5625 131.996 20.9503 131.584 21.223C131.172 21.4929 130.702 21.6278 130.174 21.6278C129.776 21.6278 129.451 21.5611 129.198 21.4276C128.948 21.294 128.752 21.1378 128.61 20.9588C128.468 20.7798 128.358 20.6207 128.282 20.4815H128.205V23.9545H126.931ZM128.179 18.2273C128.179 18.6875 128.246 19.0909 128.38 19.4375C128.513 19.7841 128.706 20.0554 128.959 20.2514C129.212 20.4446 129.522 20.5412 129.888 20.5412C130.269 20.5412 130.587 20.4403 130.843 20.2386C131.098 20.0341 131.292 19.7571 131.422 19.4077C131.556 19.0582 131.623 18.6648 131.623 18.2273C131.623 17.7955 131.557 17.4077 131.426 17.0639C131.299 16.7202 131.105 16.4489 130.847 16.25C130.591 16.0511 130.272 15.9517 129.888 15.9517C129.519 15.9517 129.206 16.0469 128.951 16.2372C128.698 16.4276 128.506 16.6932 128.375 17.0341C128.245 17.375 128.179 17.7727 128.179 18.2273ZM137.094 21.6321C136.48 21.6321 135.945 21.4915 135.488 21.2102C135.03 20.929 134.675 20.5355 134.422 20.0298C134.169 19.5241 134.043 18.9332 134.043 18.2571C134.043 17.5781 134.169 16.9844 134.422 16.4759C134.675 15.9673 135.03 15.5724 135.488 15.2912C135.945 15.0099 136.48 14.8693 137.094 14.8693C137.708 14.8693 138.243 15.0099 138.701 15.2912C139.158 15.5724 139.513 15.9673 139.766 16.4759C140.019 16.9844 140.145 17.5781 140.145 18.2571C140.145 18.9332 140.019 19.5241 139.766 20.0298C139.513 20.5355 139.158 20.929 138.701 21.2102C138.243 21.4915 137.708 21.6321 137.094 21.6321ZM137.098 20.5625C137.496 20.5625 137.826 20.4574 138.087 20.2472C138.348 20.0369 138.542 19.7571 138.667 19.4077C138.794 19.0582 138.858 18.6733 138.858 18.2528C138.858 17.8352 138.794 17.4517 138.667 17.1023C138.542 16.75 138.348 16.4673 138.087 16.2543C137.826 16.0412 137.496 15.9347 137.098 15.9347C136.698 15.9347 136.365 16.0412 136.101 16.2543C135.84 16.4673 135.645 16.75 135.517 17.1023C135.392 17.4517 135.33 17.8352 135.33 18.2528C135.33 18.6733 135.392 19.0582 135.517 19.4077C135.645 19.7571 135.84 20.0369 136.101 20.2472C136.365 20.4574 136.698 20.5625 137.098 20.5625ZM141.567 21.5V14.9545H142.799V15.9943H142.867C142.987 15.642 143.197 15.3651 143.498 15.1634C143.802 14.9588 144.146 14.8565 144.529 14.8565C144.609 14.8565 144.702 14.8594 144.81 14.8651C144.921 14.8707 145.008 14.8778 145.07 14.8864V16.1051C145.019 16.0909 144.928 16.0753 144.798 16.0582C144.667 16.0384 144.536 16.0284 144.406 16.0284C144.104 16.0284 143.836 16.0923 143.6 16.2202C143.367 16.3452 143.183 16.5199 143.046 16.7443C142.91 16.9659 142.842 17.2187 142.842 17.5028V21.5H141.567ZM149.615 14.9545V15.9773H146.04V14.9545H149.615ZM146.999 13.3864H148.273V19.5781C148.273 19.8253 148.31 20.0114 148.384 20.1364C148.457 20.2585 148.553 20.3423 148.669 20.3878C148.788 20.4304 148.918 20.4517 149.057 20.4517C149.159 20.4517 149.249 20.4446 149.325 20.4304C149.402 20.4162 149.462 20.4048 149.504 20.3963L149.734 21.4489C149.661 21.4773 149.555 21.5057 149.419 21.5341C149.283 21.5653 149.112 21.5824 148.908 21.5852C148.572 21.5909 148.26 21.5312 147.97 21.4062C147.68 21.2812 147.446 21.0881 147.267 20.8267C147.088 20.5653 146.999 20.2372 146.999 19.8423V13.3864ZM155.171 18.7855V14.9545H156.449V21.5H155.196V20.3665H155.128C154.978 20.7159 154.736 21.0071 154.404 21.2401C154.074 21.4702 153.664 21.5852 153.172 21.5852C152.752 21.5852 152.38 21.4929 152.056 21.3082C151.735 21.1207 151.482 20.8438 151.297 20.4773C151.115 20.1108 151.025 19.6577 151.025 19.1179V14.9545H152.299V18.9645C152.299 19.4105 152.422 19.7656 152.669 20.0298C152.917 20.294 153.238 20.4261 153.632 20.4261C153.871 20.4261 154.108 20.3665 154.344 20.2472C154.583 20.1278 154.78 19.9474 154.936 19.706C155.096 19.4645 155.174 19.1577 155.171 18.7855ZM159.435 17.6136V21.5H158.161V14.9545H159.384V16.0199H159.465C159.616 15.6733 159.852 15.3949 160.173 15.1847C160.496 14.9744 160.904 14.8693 161.396 14.8693C161.842 14.8693 162.232 14.9631 162.567 15.1506C162.903 15.3352 163.163 15.6108 163.347 15.9773C163.532 16.3437 163.624 16.7969 163.624 17.3366V21.5H162.35V17.4901C162.35 17.0156 162.227 16.6449 161.979 16.3778C161.732 16.108 161.393 15.973 160.961 15.973C160.665 15.973 160.403 16.0369 160.173 16.1648C159.945 16.2926 159.765 16.4801 159.631 16.7273C159.501 16.9716 159.435 17.267 159.435 17.6136ZM165.333 21.5V14.9545H166.607V21.5H165.333ZM165.977 13.9446C165.755 13.9446 165.565 13.8707 165.406 13.723C165.249 13.5724 165.171 13.3935 165.171 13.1861C165.171 12.9759 165.249 12.7969 165.406 12.6491C165.565 12.4986 165.755 12.4233 165.977 12.4233C166.198 12.4233 166.387 12.4986 166.543 12.6491C166.702 12.7969 166.782 12.9759 166.782 13.1861C166.782 13.3935 166.702 13.5724 166.543 13.723C166.387 13.8707 166.198 13.9446 165.977 13.9446ZM171.377 14.9545V15.9773H167.801V14.9545H171.377ZM168.76 13.3864H170.034V19.5781C170.034 19.8253 170.071 20.0114 170.145 20.1364C170.219 20.2585 170.314 20.3423 170.431 20.3878C170.55 20.4304 170.679 20.4517 170.819 20.4517C170.921 20.4517 171.01 20.4446 171.087 20.4304C171.164 20.4162 171.223 20.4048 171.266 20.3963L171.496 21.4489C171.422 21.4773 171.317 21.5057 171.181 21.5341C171.044 21.5653 170.874 21.5824 170.669 21.5852C170.334 21.5909 170.022 21.5312 169.732 21.4062C169.442 21.2812 169.208 21.0881 169.029 20.8267C168.85 20.5653 168.76 20.2372 168.76 19.8423V13.3864ZM173.592 23.9545C173.401 23.9545 173.228 23.9389 173.072 23.9077C172.915 23.8793 172.799 23.848 172.722 23.8139L173.029 22.7699C173.262 22.8324 173.469 22.8594 173.651 22.8509C173.833 22.8423 173.994 22.7741 174.133 22.6463C174.275 22.5185 174.4 22.3097 174.508 22.0199L174.665 21.5852L172.271 14.9545H173.634L175.292 20.0341H175.36L177.018 14.9545H178.386L175.688 22.3736C175.563 22.7145 175.404 23.0028 175.211 23.2386C175.018 23.4773 174.788 23.6563 174.521 23.7756C174.254 23.8949 173.944 23.9545 173.592 23.9545Z" fill="#212529"/>
<defs>
<filter id="filter0_d_1058_3502" x="0" y="0" width="194" height="42" filterUnits="userSpaceOnUse" color-interpolation-filters="sRGB">
<feFlood flood-opacity="0" result="BackgroundImageFix"/>
<feColorMatrix in="SourceAlpha" type="matrix" values="0 0 0 0 0 0 0 0 0 0 0 0 0 0 0 0 0 0 127 0" result="hardAlpha"/>
<feOffset dy="4"/>
<feGaussianBlur stdDeviation="2"/>
<feComposite in2="hardAlpha" operator="out"/>
<feColorMatrix type="matrix" values="0 0 0 0 0.8625 0 0 0 0 0.8625 0 0 0 0 0.8625 0 0 0 0.25 0"/>
<feBlend mode="normal" in2="BackgroundImageFix" result="effect1_dropShadow_1058_3502"/>
<feBlend mode="normal" in="SourceGraphic" in2="effect1_dropShadow_1058_3502" result="shape"/>
</filter>
</defs>
</svg>
