<svg width="129" height="42" viewBox="0 0 129 42" fill="none" xmlns="http://www.w3.org/2000/svg">
<g filter="url(#filter0_d_1058_3509)">
<rect x="4" width="121" height="34" rx="6" fill="white"/>
</g>
<path d="M31 14L25.5 21L23 17.8182" stroke="#19364D" stroke-opacity="0.6" stroke-linecap="round" stroke-linejoin="round"/>
<circle cx="27" cy="17" r="8.5" stroke="#19364D" stroke-opacity="0.6"/>
<path d="M43.9588 21.5V12.7727H49.3707V13.9062H45.2756V16.5653H48.983V17.6946H45.2756V21.5H43.9588ZM54.6239 18.7855V14.9545H55.9023V21.5H54.6495V20.3665H54.5813C54.4308 20.7159 54.1893 21.0071 53.8569 21.2401C53.5273 21.4702 53.1168 21.5852 52.6254 21.5852C52.2049 21.5852 51.8327 21.4929 51.5089 21.3082C51.1879 21.1207 50.935 20.8438 50.7504 20.4773C50.5685 20.1108 50.4776 19.6577 50.4776 19.1179V14.9545H51.7518V18.9645C51.7518 19.4105 51.8754 19.7656 52.1225 20.0298C52.3697 20.294 52.6907 20.4261 53.0856 20.4261C53.3242 20.4261 53.5614 20.3665 53.7972 20.2472C54.0359 20.1278 54.2333 19.9474 54.3896 19.706C54.5487 19.4645 54.6268 19.1577 54.6239 18.7855ZM58.8885 12.7727V21.5H57.6143V12.7727H58.8885ZM61.8768 12.7727V21.5H60.6026V12.7727H61.8768ZM64.3963 23.9545C64.206 23.9545 64.0327 23.9389 63.8764 23.9077C63.7202 23.8793 63.6037 23.848 63.527 23.8139L63.8338 22.7699C64.0668 22.8324 64.2741 22.8594 64.456 22.8509C64.6378 22.8423 64.7983 22.7741 64.9375 22.6463C65.0795 22.5185 65.2045 22.3097 65.3125 22.0199L65.4702 21.5852L63.0753 14.9545H64.4389L66.0966 20.0341H66.1648L67.8224 14.9545H69.1903L66.4929 22.3736C66.3679 22.7145 66.2088 23.0028 66.0156 23.2386C65.8224 23.4773 65.5923 23.6563 65.3253 23.7756C65.0582 23.8949 64.7486 23.9545 64.3963 23.9545ZM73.5636 21.5V14.9545H74.7951V15.9943H74.8633C74.9826 15.642 75.1928 15.3651 75.494 15.1634C75.7979 14.9588 76.1417 14.8565 76.5252 14.8565C76.6048 14.8565 76.6985 14.8594 76.8065 14.8651C76.9173 14.8707 77.0039 14.8778 77.0664 14.8864V16.1051C77.0153 16.0909 76.9244 16.0753 76.7937 16.0582C76.663 16.0384 76.5323 16.0284 76.4016 16.0284C76.1005 16.0284 75.832 16.0923 75.5962 16.2202C75.3633 16.3452 75.1786 16.5199 75.0423 16.7443C74.9059 16.9659 74.8377 17.2187 74.8377 17.5028V21.5H73.5636ZM80.7557 21.6321C80.1108 21.6321 79.5554 21.4943 79.0895 21.2188C78.6264 20.9403 78.2685 20.5497 78.0156 20.0469C77.7656 19.5412 77.6406 18.9489 77.6406 18.2699C77.6406 17.5994 77.7656 17.0085 78.0156 16.4972C78.2685 15.9858 78.6207 15.5866 79.0724 15.2997C79.527 15.0128 80.0582 14.8693 80.6662 14.8693C81.0355 14.8693 81.3935 14.9304 81.7401 15.0526C82.0866 15.1747 82.3977 15.3665 82.6733 15.6278C82.9489 15.8892 83.1662 16.2287 83.3253 16.6463C83.4844 17.0611 83.5639 17.5653 83.5639 18.1591V18.6108H78.3608V17.6562H82.3153C82.3153 17.321 82.2472 17.0241 82.1108 16.7656C81.9744 16.5043 81.7827 16.2983 81.5355 16.1477C81.2912 15.9972 81.0043 15.9219 80.6747 15.9219C80.3168 15.9219 80.0043 16.0099 79.7372 16.1861C79.473 16.3594 79.2685 16.5866 79.1236 16.8679C78.9815 17.1463 78.9105 17.4489 78.9105 17.7756V18.5213C78.9105 18.9588 78.9872 19.331 79.1406 19.6378C79.2969 19.9446 79.5142 20.179 79.7926 20.3409C80.071 20.5 80.3963 20.5795 80.7685 20.5795C81.0099 20.5795 81.2301 20.5455 81.429 20.4773C81.6278 20.4062 81.7997 20.3011 81.9446 20.1619C82.0895 20.0227 82.2003 19.8509 82.277 19.6463L83.483 19.8636C83.3864 20.2187 83.2131 20.5298 82.9631 20.7969C82.7159 21.0611 82.4048 21.267 82.0298 21.4148C81.6577 21.5597 81.233 21.6321 80.7557 21.6321ZM84.9776 21.5V14.9545H86.2006V16.0199H86.2816C86.418 15.6591 86.641 15.3778 86.9506 15.1761C87.2603 14.9716 87.631 14.8693 88.0629 14.8693C88.5004 14.8693 88.8668 14.9716 89.1623 15.1761C89.4606 15.3807 89.6808 15.6619 89.8228 16.0199H89.891C90.0472 15.6705 90.2958 15.392 90.6367 15.1847C90.9776 14.9744 91.3839 14.8693 91.8555 14.8693C92.4492 14.8693 92.9336 15.0554 93.3086 15.4276C93.6864 15.7997 93.8754 16.3608 93.8754 17.1108V21.5H92.6012V17.2301C92.6012 16.7869 92.4805 16.4659 92.239 16.267C91.9975 16.0682 91.7092 15.9688 91.3739 15.9688C90.9592 15.9688 90.6367 16.0966 90.4066 16.3523C90.1765 16.6051 90.0614 16.9304 90.0614 17.3281V21.5H88.7915V17.1491C88.7915 16.794 88.6808 16.5085 88.4592 16.2926C88.2376 16.0767 87.9492 15.9688 87.5941 15.9688C87.3526 15.9688 87.1296 16.0327 86.9251 16.1605C86.7234 16.2855 86.56 16.4602 86.435 16.6847C86.3129 16.9091 86.2518 17.169 86.2518 17.4645V21.5H84.9776ZM98.3402 21.6321C97.7266 21.6321 97.1911 21.4915 96.7337 21.2102C96.2763 20.929 95.9212 20.5355 95.6683 20.0298C95.4155 19.5241 95.2891 18.9332 95.2891 18.2571C95.2891 17.5781 95.4155 16.9844 95.6683 16.4759C95.9212 15.9673 96.2763 15.5724 96.7337 15.2912C97.1911 15.0099 97.7266 14.8693 98.3402 14.8693C98.9538 14.8693 99.4893 15.0099 99.9467 15.2912C100.404 15.5724 100.759 15.9673 101.012 16.4759C101.265 16.9844 101.391 17.5781 101.391 18.2571C101.391 18.9332 101.265 19.5241 101.012 20.0298C100.759 20.5355 100.404 20.929 99.9467 21.2102C99.4893 21.4915 98.9538 21.6321 98.3402 21.6321ZM98.3445 20.5625C98.7422 20.5625 99.0717 20.4574 99.3331 20.2472C99.5945 20.0369 99.7876 19.7571 99.9126 19.4077C100.04 19.0582 100.104 18.6733 100.104 18.2528C100.104 17.8352 100.04 17.4517 99.9126 17.1023C99.7876 16.75 99.5945 16.4673 99.3331 16.2543C99.0717 16.0412 98.7422 15.9347 98.3445 15.9347C97.9439 15.9347 97.6115 16.0412 97.3473 16.2543C97.0859 16.4673 96.8913 16.75 96.7635 17.1023C96.6385 17.4517 96.576 17.8352 96.576 18.2528C96.576 18.6733 96.6385 19.0582 96.7635 19.4077C96.8913 19.7571 97.0859 20.0369 97.3473 20.2472C97.6115 20.4574 97.9439 20.5625 98.3445 20.5625ZM105.869 14.9545V15.9773H102.294V14.9545H105.869ZM103.252 13.3864H104.527V19.5781C104.527 19.8253 104.564 20.0114 104.637 20.1364C104.711 20.2585 104.806 20.3423 104.923 20.3878C105.042 20.4304 105.172 20.4517 105.311 20.4517C105.413 20.4517 105.502 20.4446 105.579 20.4304C105.656 20.4162 105.716 20.4048 105.758 20.3963L105.988 21.4489C105.914 21.4773 105.809 21.5057 105.673 21.5341C105.537 21.5653 105.366 21.5824 105.162 21.5852C104.826 21.5909 104.514 21.5312 104.224 21.4062C103.934 21.2812 103.7 21.0881 103.521 20.8267C103.342 20.5653 103.252 20.2372 103.252 19.8423V13.3864ZM110.029 21.6321C109.384 21.6321 108.829 21.4943 108.363 21.2188C107.9 20.9403 107.542 20.5497 107.289 20.0469C107.039 19.5412 106.914 18.9489 106.914 18.2699C106.914 17.5994 107.039 17.0085 107.289 16.4972C107.542 15.9858 107.894 15.5866 108.346 15.2997C108.8 15.0128 109.332 14.8693 109.94 14.8693C110.309 14.8693 110.667 14.9304 111.013 15.0526C111.36 15.1747 111.671 15.3665 111.947 15.6278C112.222 15.8892 112.44 16.2287 112.599 16.6463C112.758 17.0611 112.837 17.5653 112.837 18.1591V18.6108H107.634V17.6562H111.589C111.589 17.321 111.521 17.0241 111.384 16.7656C111.248 16.5043 111.056 16.2983 110.809 16.1477C110.565 15.9972 110.278 15.9219 109.948 15.9219C109.59 15.9219 109.278 16.0099 109.011 16.1861C108.746 16.3594 108.542 16.5866 108.397 16.8679C108.255 17.1463 108.184 17.4489 108.184 17.7756V18.5213C108.184 18.9588 108.261 19.331 108.414 19.6378C108.57 19.9446 108.788 20.179 109.066 20.3409C109.344 20.5 109.67 20.5795 110.042 20.5795C110.283 20.5795 110.504 20.5455 110.702 20.4773C110.901 20.4062 111.073 20.3011 111.218 20.1619C111.363 20.0227 111.474 19.8509 111.55 19.6463L112.756 19.8636C112.66 20.2187 112.487 20.5298 112.237 20.7969C111.989 21.0611 111.678 21.267 111.303 21.4148C110.931 21.5597 110.506 21.6321 110.029 21.6321Z" fill="#212529"/>
<defs>
<filter id="filter0_d_1058_3509" x="0" y="0" width="129" height="42" filterUnits="userSpaceOnUse" color-interpolation-filters="sRGB">
<feFlood flood-opacity="0" result="BackgroundImageFix"/>
<feColorMatrix in="SourceAlpha" type="matrix" values="0 0 0 0 0 0 0 0 0 0 0 0 0 0 0 0 0 0 127 0" result="hardAlpha"/>
<feOffset dy="4"/>
<feGaussianBlur stdDeviation="2"/>
<feComposite in2="hardAlpha" operator="out"/>
<feColorMatrix type="matrix" values="0 0 0 0 0.8625 0 0 0 0 0.8625 0 0 0 0 0.8625 0 0 0 0.25 0"/>
<feBlend mode="normal" in2="BackgroundImageFix" result="effect1_dropShadow_1058_3509"/>
<feBlend mode="normal" in="SourceGraphic" in2="effect1_dropShadow_1058_3509" result="shape"/>
</filter>
</defs>
</svg>
