<svg width="33" height="33" viewBox="0 0 33 33" fill="none" xmlns="http://www.w3.org/2000/svg">
<rect width="32" height="32" transform="translate(0.804932 0.804688)" fill="#19364D"/>
<path d="M18.6849 16.8048L24.4182 11.0848C24.6693 10.8337 24.8103 10.4932 24.8103 10.1381C24.8103 9.78304 24.6693 9.44251 24.4182 9.19144C24.1671 8.94037 23.8266 8.79932 23.4715 8.79932C23.1164 8.79932 22.7759 8.94037 22.5249 9.19144L16.8049 14.9248L11.0849 9.19144C10.8338 8.94037 10.4933 8.79932 10.1382 8.79932C9.78311 8.79932 9.44259 8.94037 9.19152 9.19144C8.94045 9.44251 8.79939 9.78304 8.79939 10.1381C8.79939 10.4932 8.94045 10.8337 9.19152 11.0848L14.9249 16.8048L9.19152 22.5248C9.06655 22.6487 8.96735 22.7962 8.89966 22.9587C8.83197 23.1211 8.79712 23.2954 8.79712 23.4714C8.79712 23.6475 8.83197 23.8217 8.89966 23.9842C8.96735 24.1467 9.06655 24.2942 9.19152 24.4181C9.31547 24.5431 9.46294 24.6423 9.62541 24.71C9.78789 24.7777 9.96217 24.8125 10.1382 24.8125C10.3142 24.8125 10.4885 24.7777 10.651 24.71C10.8134 24.6423 10.9609 24.5431 11.0849 24.4181L16.8049 18.6848L22.5249 24.4181C22.6488 24.5431 22.7963 24.6423 22.9587 24.71C23.1212 24.7777 23.2955 24.8125 23.4715 24.8125C23.6475 24.8125 23.8218 24.7777 23.9843 24.71C24.1468 24.6423 24.2942 24.5431 24.4182 24.4181C24.5432 24.2942 24.6423 24.1467 24.71 23.9842C24.7777 23.8217 24.8126 23.6475 24.8126 23.4714C24.8126 23.2954 24.7777 23.1211 24.71 22.9587C24.6423 22.7962 24.5432 22.6487 24.4182 22.5248L18.6849 16.8048Z" fill="#FCFCFC"/>
</svg>
