<svg width="32" height="30" viewBox="0 0 32 30" fill="none" xmlns="http://www.w3.org/2000/svg">
<path d="M0 8.33105V26.9998C0 28.4686 1.19375 29.6686 2.66875 29.6686H4V5.66855H2.66875C1.19375 5.66855 0 6.8623 0 8.33105ZM29.3312 5.66855H28V29.6686H29.3312C30.8 29.6686 32 28.4748 32 26.9998V8.33105C32 6.8623 30.8062 5.66855 29.3312 5.66855ZM6.66875 29.6686H25.3375V5.66855H6.66875V29.6686ZM13.3313 2.9998H18.6625V4.33105H21.3312V2.9998C21.3312 1.53105 20.1375 0.331055 18.6625 0.331055H13.3313C11.8625 0.331055 10.6625 1.5248 10.6625 2.9998V4.33105H13.3313V2.9998Z" fill="#19364D"/>
</svg>
