<svg width="28" height="28" viewBox="0 0 28 28" fill="none" xmlns="http://www.w3.org/2000/svg">
<path d="M14.0001 12.5332C13.1867 12.5332 12.5334 13.1865 12.5334 13.9998C12.5334 14.8132 13.1867 15.4665 14.0001 15.4665C14.8134 15.4665 15.4667 14.8132 15.4667 13.9998C15.4667 13.1865 14.8134 12.5332 14.0001 12.5332ZM14.0001 0.666504C6.64008 0.666504 0.666748 6.63984 0.666748 13.9998C0.666748 21.3598 6.64008 27.3332 14.0001 27.3332C21.3601 27.3332 27.3334 21.3598 27.3334 13.9998C27.3334 6.63984 21.3601 0.666504 14.0001 0.666504ZM16.9201 16.9198L6.00008 21.9998L11.0801 11.0798L22.0001 5.99984L16.9201 16.9198Z" fill="#19364D"/>
</svg>
