<svg width="28" height="28" viewBox="0 0 28 28" fill="none" xmlns="http://www.w3.org/2000/svg">
<path d="M26.0001 0.666504H6.00008C5.29284 0.666504 4.61456 0.947455 4.11446 1.44755C3.61437 1.94765 3.33341 2.62593 3.33341 3.33317V7.33317H0.666748V9.99984H3.33341V12.6665H0.666748V15.3332H3.33341V17.9998H0.666748V20.6665H3.33341V24.6665C3.33341 25.3737 3.61437 26.052 4.11446 26.5521C4.61456 27.0522 5.29284 27.3332 6.00008 27.3332H26.0001C26.3537 27.3332 26.6928 27.1927 26.9429 26.9426C27.1929 26.6926 27.3334 26.3535 27.3334 25.9998V1.99984C27.3334 1.64622 27.1929 1.30708 26.9429 1.05703C26.6928 0.80698 26.3537 0.666504 26.0001 0.666504ZM15.3334 4.66517C17.5307 4.66517 19.3334 6.4665 19.3334 8.66517C19.3296 9.72497 18.9069 10.7403 18.1577 11.4898C17.4084 12.2393 16.3932 12.6623 15.3334 12.6665C13.1374 12.6665 11.3334 10.8625 11.3334 8.66517C11.3334 6.4665 13.1374 4.66517 15.3334 4.66517ZM23.3334 21.9998H7.33341V20.9998C7.33341 18.0412 10.9401 14.9998 15.3334 14.9998C19.7267 14.9998 23.3334 18.0412 23.3334 20.9998V21.9998Z" fill="#19364D"/>
</svg>
