<svg width="98" height="98" viewBox="0 0 98 98" fill="none" xmlns="http://www.w3.org/2000/svg">
<path d="M74.9999 4.16504C75.0013 3.42238 74.7821 2.69605 74.3701 2.07814C73.9581 1.46022 73.372 0.978535 72.6859 0.694154C71.9999 0.409772 71.2448 0.335499 70.5165 0.48075C69.7882 0.626001 69.1194 0.984235 68.5949 1.51004L53.5949 16.51C53.2469 16.8589 52.9711 17.273 52.7832 17.7286C52.5953 18.1841 52.4991 18.6722 52.5 19.165V40.1125L46.9424 45.6625C45.8307 45.3675 44.666 45.3316 43.5382 45.5577C42.4104 45.7837 41.3495 46.2656 40.4373 46.9662C39.5251 47.6669 38.7859 48.5676 38.2766 49.5989C37.7674 50.6303 37.5016 51.7648 37.5 52.915C37.5004 53.9824 37.7287 55.0373 38.1696 56.0094C38.6105 56.9814 39.2537 57.8482 40.0564 58.5517C40.8591 59.2553 41.8026 59.7794 42.8241 60.089C43.8455 60.3987 44.9213 60.4868 45.9795 60.3474C47.0377 60.2079 48.054 59.8443 48.9604 59.2806C49.8668 58.717 50.6425 57.9664 51.2355 57.079C51.8286 56.1916 52.2255 55.1878 52.3995 54.1347C52.5736 53.0817 52.5209 52.0036 52.2449 50.9725L57.8024 45.415H78.7499C79.2427 45.4159 79.7309 45.3197 80.1864 45.1318C80.642 44.9439 81.0561 44.668 81.405 44.32L96.405 29.32C96.9307 28.7956 97.289 28.1268 97.4342 27.3985C97.5795 26.6702 97.5052 25.9151 97.2208 25.2291C96.9365 24.543 96.4548 23.9568 95.8369 23.5449C95.2189 23.1329 94.4926 22.9137 93.7499 22.915H74.9999V4.16504ZM89.5799 46.75C90.8705 56.0888 89.1955 65.597 84.7913 73.9326C80.3871 82.2681 73.4762 89.0099 65.0341 93.2063C56.5921 97.4027 47.0453 98.8418 37.7413 97.3203C28.4374 95.7989 19.8463 91.3938 13.1807 84.7269C6.51506 78.06 2.11166 69.468 0.592034 60.1638C-0.92759 50.8595 0.513326 41.313 4.71138 32.8718C8.90944 24.4305 15.6526 17.521 23.989 13.1184C32.3254 8.71584 41.8339 7.04266 51.1724 8.33504L48.2999 11.2075C47.2541 12.2521 46.4243 13.4925 45.8581 14.8579C45.2919 16.2233 45.0003 17.6869 45 19.165C38.3248 19.165 31.7996 21.1444 26.2495 24.8529C20.6993 28.5614 16.3735 33.8325 13.819 39.9995C11.2646 46.1665 10.5962 52.9525 11.8984 59.4993C13.2007 66.0462 16.4151 72.0599 21.1351 76.7799C25.8551 81.4999 31.8688 84.7143 38.4157 86.0165C44.9625 87.3188 51.7485 86.6504 57.9155 84.096C64.0825 81.5415 69.3536 77.2157 73.062 71.6655C76.7705 66.1154 78.7499 59.5902 78.7499 52.915C81.7326 52.9124 84.5922 51.7254 86.7 49.615L89.5799 46.75ZM45 26.665C39.8082 26.665 34.733 28.2046 30.4162 31.089C26.0994 33.9733 22.7349 38.073 20.7481 42.8696C18.7613 47.6662 18.2415 52.9442 19.2543 58.0362C20.2672 63.1282 22.7673 67.8055 26.4384 71.4766C30.1095 75.1477 34.7868 77.6478 39.8788 78.6607C44.9708 79.6735 50.2488 79.1537 55.0454 77.1669C59.8419 75.1801 63.9416 71.8155 66.826 67.4988C69.7104 63.182 71.2499 58.1068 71.2499 52.915H60.9075L59.97 53.8525C59.7897 56.7338 58.7817 59.5019 57.0671 61.8245C55.3525 64.1471 53.0041 65.9256 50.3037 66.9465C47.6033 67.9674 44.6657 68.1874 41.8434 67.58C39.0211 66.9726 36.434 65.5637 34.3926 63.5224C32.3513 61.481 30.9423 58.8939 30.335 56.0716C29.7276 53.2493 29.9476 50.3116 30.9685 47.6113C31.9894 44.9109 33.7679 42.5624 36.0905 40.8479C38.4131 39.1333 41.1812 38.1253 44.0625 37.945L45 37.0075V26.665Z" fill="#FCFCFC"/>
</svg>
