<svg width="100" height="101" viewBox="0 0 100 101" fill="none" xmlns="http://www.w3.org/2000/svg">
<path d="M99.5 35.415L91 40.415L71 5.91504L79.5 0.915039L99.5 35.415ZM39 30.415L54 56.415L84.5 38.915L69.5 12.915L39 30.415ZM47 54.415L37 36.915L15.5 49.415L25.5 66.915L47 54.415ZM0.5 63.915L5.5 72.415L18.5 64.915L13.5 56.415L0.5 63.915ZM50.5 60.915L49 58.915L27.5 71.415L29 73.415C30 74.915 31.5 76.415 33 77.415L25 100.915H35L42 79.415H42.5L50 100.915H60L50.5 72.915C53 69.415 53 64.915 50.5 60.915Z" fill="#FCFCFC"/>
</svg>
